<svg width="24" height="24" viewBox="0 0 24 24" fill="none" xmlns="http://www.w3.org/2000/svg">
<path d="M11.1719 2.17285C12.6591 2.17289 14.0726 2.49537 15.3447 3.0752C15.6462 3.21262 15.779 3.56862 15.6416 3.87012C15.5042 4.17147 15.1491 4.30503 14.8477 4.16797C13.7286 3.65784 12.484 3.37309 11.1719 3.37305C6.27206 3.37305 2.2998 7.34531 2.2998 12.2451C2.29996 17.1448 6.27216 21.1172 11.1719 21.1172C16.0715 21.117 20.0438 17.1447 20.0439 12.2451C20.0439 11.8494 20.0179 11.4596 19.9678 11.0781C19.9246 10.7496 20.1558 10.4474 20.4844 10.4043C20.8129 10.3612 21.1141 10.5934 21.1572 10.9219C21.2141 11.3551 21.2432 11.797 21.2432 12.2451C21.243 17.8074 16.7342 22.3162 11.1719 22.3164C5.60942 22.3164 1.09977 17.8075 1.09961 12.2451C1.09961 6.68256 5.60932 2.17285 11.1719 2.17285ZM14.3965 12.8262C14.724 12.8763 14.9495 13.1832 14.8994 13.5107C14.7419 14.5404 14.321 15.371 13.6289 15.9385C12.9407 16.5027 12.0506 16.752 11.0557 16.752H11.0352L11.0146 16.75C10.0882 16.6856 9.2226 16.432 8.53711 15.8945C7.8406 15.3483 7.38481 14.5523 7.21387 13.5176C7.15988 13.1908 7.38129 12.8823 7.70801 12.8281C8.03495 12.7741 8.34443 12.9953 8.39844 13.3223C8.52731 14.1019 8.8482 14.6137 9.27734 14.9502C9.71351 15.2922 10.3166 15.496 11.0771 15.5518C11.8661 15.5483 12.4541 15.3502 12.8682 15.0107C13.2821 14.6714 13.5895 14.1356 13.7129 13.3291C13.763 13.0016 14.069 12.7762 14.3965 12.8262ZM8.62695 8.78906C9.16644 8.78906 9.60449 9.22614 9.60449 9.76562C9.60437 10.305 9.16637 10.7422 8.62695 10.7422C8.08766 10.742 7.65051 10.3049 7.65039 9.76562C7.65039 9.22623 8.08759 8.78921 8.62695 8.78906ZM13.7168 8.78906C14.2563 8.78906 14.6943 9.22614 14.6943 9.76562C14.6942 10.305 14.2562 10.7422 13.7168 10.7422C13.1775 10.742 12.7404 10.3049 12.7402 9.76562C12.7402 9.22623 13.1774 8.78921 13.7168 8.78906ZM19.1953 2.5C19.5266 2.5 19.7958 2.76831 19.7959 3.09961V5.2998H21.9961C22.3272 5.30002 22.5955 5.56833 22.5957 5.89941C22.5957 6.23065 22.3273 6.49979 21.9961 6.5H19.7959V8.89941C19.7959 9.23079 19.5267 9.5 19.1953 9.5C18.8641 9.49979 18.5957 9.23065 18.5957 8.89941V6.5H16.1953C15.8641 6.49979 15.5957 6.23065 15.5957 5.89941C15.5959 5.56833 15.8642 5.30002 16.1953 5.2998H18.5957V3.09961C18.5958 2.76844 18.8642 2.50021 19.1953 2.5Z" fill="#181818"/>
</svg>
