<svg width="20" height="20" viewBox="0 0 20 20" fill="none" xmlns="http://www.w3.org/2000/svg">
<path d="M9.31055 1.81055C10.5499 1.81058 11.728 2.07927 12.7881 2.5625C13.0394 2.67704 13.1507 2.97432 13.0361 3.22559C12.9216 3.47676 12.6243 3.58718 12.373 3.47266C11.4406 3.04763 10.4039 2.81058 9.31055 2.81055C5.22737 2.81055 1.91699 6.12093 1.91699 10.2041C1.91712 14.2872 5.22745 17.5977 9.31055 17.5977C13.3935 17.5975 16.704 14.2871 16.7041 10.2041C16.7041 9.87426 16.6824 9.54942 16.6406 9.23145C16.6047 8.95765 16.7975 8.70685 17.0713 8.6709C17.345 8.63513 17.5959 8.82787 17.6318 9.10156C17.6792 9.46251 17.7041 9.8307 17.7041 10.2041C17.704 14.8394 13.9458 18.5975 9.31055 18.5977C4.67517 18.5977 0.917124 14.8395 0.916992 10.2041C0.916992 5.56864 4.67509 1.81055 9.31055 1.81055ZM11.998 10.6885C12.2709 10.7303 12.4587 10.9859 12.417 11.2588C12.2858 12.1167 11.935 12.8084 11.3584 13.2812C10.7849 13.7515 10.0431 13.96 9.21387 13.96H9.19629L9.17969 13.958C8.40751 13.9043 7.68556 13.6931 7.11426 13.2451C6.53397 12.79 6.15516 12.1268 6.0127 11.2646C5.96771 10.9923 6.1516 10.7347 6.42383 10.6895C6.69628 10.6444 6.95402 10.8291 6.99902 11.1016C7.10637 11.7513 7.37389 12.1775 7.73145 12.458C8.09493 12.7431 8.59752 12.9135 9.23145 12.96C9.88914 12.9571 10.3795 12.7918 10.7246 12.5088C11.0695 12.226 11.3249 11.7794 11.4277 11.1074C11.4695 10.8345 11.7251 10.6467 11.998 10.6885ZM7.19043 7.32324C7.63981 7.32347 8.00391 7.68827 8.00391 8.1377C8.0039 8.58712 7.6398 8.95192 7.19043 8.95215C6.74086 8.95215 6.37599 8.58726 6.37598 8.1377C6.37598 7.68812 6.74086 7.32324 7.19043 7.32324ZM11.4316 7.32324C11.881 7.32347 12.2451 7.68827 12.2451 8.1377C12.2451 8.5871 11.881 8.95192 11.4316 8.95215C10.9821 8.95215 10.6172 8.58724 10.6172 8.1377C10.6172 7.68812 10.9821 7.32324 11.4316 7.32324ZM15.9971 2.08301C16.2732 2.08301 16.4971 2.30687 16.4971 2.58301V4.41602H18.3301C18.6061 4.41602 18.8299 4.64 18.8301 4.91602C18.8301 5.19216 18.6062 5.41602 18.3301 5.41602H16.4971V7.41602C16.4971 7.69216 16.2732 7.91602 15.9971 7.91602C15.7209 7.91602 15.4971 7.69216 15.4971 7.41602V5.41602H13.4971C13.2209 5.41602 12.9971 5.19216 12.9971 4.91602C12.9972 4.64 13.221 4.41602 13.4971 4.41602H15.4971V2.58301C15.4971 2.30687 15.7209 2.08301 15.9971 2.08301Z" fill="#181818"/>
</svg>
