<?xml version="1.0" standalone="no"?>
<!DOCTYPE svg PUBLIC "-//W3C//DTD SVG 20010904//EN"
 "http://www.w3.org/TR/2001/REC-SVG-20010904/DTD/svg10.dtd">
<svg version="1.0" xmlns="http://www.w3.org/2000/svg"
 width="512.000000pt" height="512.000000pt" viewBox="0 0 512.000000 512.000000"
 preserveAspectRatio="xMidYMid meet">

<g transform="translate(0.000000,512.000000) scale(0.100000,-0.100000)"
fill="#000000" stroke="none">
<path d="M895 4854 c-111 -24 -233 -73 -309 -127 -49 -34 -145 -128 -181 -177
-43 -58 -98 -169 -121 -245 -18 -58 -19 -128 -19 -1745 0 -1906 -8 -1715 83
-1895 65 -128 189 -252 318 -318 52 -26 128 -56 175 -67 82 -19 117 -20 1716
-20 1845 0 1705 -6 1883 82 91 45 117 63 195 142 73 73 100 109 138 182 89
174 87 150 87 1025 l0 766 -22 33 c-66 97 -213 89 -262 -14 -14 -30 -16 -110
-16 -748 0 -450 -4 -737 -11 -778 -31 -192 -187 -348 -379 -379 -90 -15 -3130
-15 -3220 0 -192 31 -348 187 -379 379 -15 90 -15 3130 0 3220 31 192 187 348
379 379 41 7 329 11 784 11 713 0 719 0 753 21 40 25 73 85 73 131 0 45 -30
98 -70 126 l-33 22 -771 -1 c-424 -1 -780 -3 -791 -5z"/>
<path d="M3845 4844 c-33 -8 -98 -33 -145 -55 l-85 -41 -941 -940 c-620 -619
-951 -957 -972 -991 -59 -99 -62 -125 -62 -615 0 -491 0 -489 64 -535 31 -22
34 -22 485 -25 499 -3 524 -1 625 58 35 20 342 321 992 972 l941 943 41 85
c57 120 76 214 70 358 -5 131 -30 218 -90 320 -44 75 -315 346 -390 390 -111
65 -188 85 -338 89 -95 2 -153 -2 -195 -13z m320 -315 c68 -25 125 -70 238
-188 97 -101 129 -157 147 -260 14 -80 0 -171 -37 -245 -16 -31 -71 -97 -144
-171 l-118 -120 -353 352 -353 353 114 114 c118 119 179 161 266 183 65 16
169 9 240 -18z m-480 -849 l350 -350 -675 -676 c-371 -371 -687 -682 -702
-690 -22 -11 -91 -14 -368 -14 l-340 0 0 341 c0 228 4 347 11 362 11 21 1359
1377 1369 1377 3 0 163 -158 355 -350z"/>
</g>
</svg>
