<?xml version="1.0" standalone="no"?>
<!DOCTYPE svg PUBLIC "-//W3C//DTD SVG 20010904//EN"
 "http://www.w3.org/TR/2001/REC-SVG-20010904/DTD/svg10.dtd">
<svg version="1.0" xmlns="http://www.w3.org/2000/svg"
 width="64.000000pt" height="64.000000pt" viewBox="0 0 64.000000 64.000000"
 preserveAspectRatio="xMidYMid meet">

<g transform="translate(0.000000,64.000000) scale(0.100000,-0.100000)"
fill="#000000" stroke="none">
<path d="M214 566 c-17 -8 -47 -28 -68 -46 -118 -104 -121 -290 -5 -394 55
-50 103 -69 179 -69 106 -1 205 64 245 160 32 75 11 100 -50 59 -78 -53 -157
-47 -221 18 -65 64 -71 143 -18 221 14 21 23 44 20 51 -7 17 -42 17 -82 0z"/>
</g>
</svg>
