<svg width="20" height="20" viewBox="0 0 20 20" fill="none" xmlns="http://www.w3.org/2000/svg">
<path d="M5.31348 8.45801C5.58951 8.45801 5.8133 8.68201 5.81348 8.95801C5.81348 9.23415 5.58962 9.45801 5.31348 9.45801H3.43848C3.19696 9.45801 3.00115 9.65403 3.00098 9.89551V17.5C3.00098 17.7416 3.19685 17.9375 3.43848 17.9375H16.5635C16.8051 17.9375 17.001 17.7416 17.001 17.5V9.89551C17.0008 9.65403 16.805 9.45801 16.5635 9.45801H14.6885C14.4123 9.45801 14.1885 9.23415 14.1885 8.95801C14.1887 8.68201 14.4124 8.45801 14.6885 8.45801H16.5635C17.3573 8.45801 18.0008 9.10175 18.001 9.89551V17.5C18.001 18.2939 17.3574 18.9375 16.5635 18.9375H3.43848C2.64457 18.9375 2.00098 18.2939 2.00098 17.5V9.89551C2.00115 9.10175 2.64468 8.45801 3.43848 8.45801H5.31348ZM9.64746 1.20898C9.8427 1.01375 10.1592 1.0138 10.3545 1.20898L14.1045 4.95898C14.2998 5.15425 14.2998 5.47075 14.1045 5.66602C13.9092 5.8612 13.5927 5.86125 13.3975 5.66602L10.501 2.76953V10.9375C10.501 11.2136 10.2771 11.4375 10.001 11.4375C9.72483 11.4375 9.50098 11.2136 9.50098 10.9375V2.76953L6.60449 5.66602C6.40922 5.8612 6.0927 5.86125 5.89746 5.66602C5.70231 5.47077 5.70231 5.15423 5.89746 4.95898L9.64746 1.20898Z" fill="#101010"/>
</svg>
