<svg width="24" height="24" viewBox="0 0 24 24" fill="none" xmlns="http://www.w3.org/2000/svg">
<path d="M6.375 10.1504C6.70624 10.1504 6.97537 10.4188 6.97559 10.75C6.97559 11.0814 6.70637 11.3506 6.375 11.3506H4.125C3.83536 11.3508 3.6008 11.5854 3.60059 11.875V21C3.60059 21.2898 3.83523 21.5252 4.125 21.5254H19.875C20.1649 21.5254 20.4004 21.2899 20.4004 21V11.875C20.4002 11.5852 20.1648 11.3506 19.875 11.3506H17.625C17.2938 11.3504 17.0254 11.0812 17.0254 10.75C17.0256 10.4189 17.2939 10.1506 17.625 10.1504H19.875C20.8276 10.1504 21.6004 10.9225 21.6006 11.875V21C21.6006 21.9527 20.8277 22.7256 19.875 22.7256H4.125C3.17249 22.7254 2.40039 21.9526 2.40039 21V11.875C2.4006 10.9226 3.17262 10.1506 4.125 10.1504H6.375ZM11.5762 1.45117C11.8105 1.21686 12.1905 1.21686 12.4248 1.45117L16.9248 5.95117C17.1591 6.18549 17.1591 6.56549 16.9248 6.7998C16.6905 7.03402 16.3105 7.03409 16.0762 6.7998L12.6006 3.32324V13.125C12.6006 13.4564 12.3314 13.7256 12 13.7256C11.6688 13.7254 11.4004 13.4562 11.4004 13.125V3.32422L7.9248 6.7998C7.69048 7.03402 7.31045 7.03409 7.07617 6.7998C6.84189 6.56552 6.84196 6.18549 7.07617 5.95117L11.5762 1.45117Z" fill="#101010"/>
</svg>
