<?xml version="1.0" standalone="no"?>
<!DOCTYPE svg PUBLIC "-//W3C//DTD SVG 20010904//EN"
 "http://www.w3.org/TR/2001/REC-SVG-20010904/DTD/svg10.dtd">
<svg version="1.0" xmlns="http://www.w3.org/2000/svg"
 width="512.000000pt" height="512.000000pt" viewBox="0 0 512.000000 512.000000"
 preserveAspectRatio="xMidYMid meet">

<g transform="translate(0.000000,512.000000) scale(0.100000,-0.100000)"
fill="#000000" stroke="none">
<path d="M2371 5110 c-798 -66 -1500 -476 -1935 -1130 -289 -433 -429 -897
-429 -1420 0 -688 259 -1317 743 -1800 226 -227 405 -357 671 -489 1110 -551
2437 -237 3186 754 92 121 167 244 247 406 444 891 322 1968 -309 2744 -84
104 -268 288 -370 371 -81 66 -251 180 -378 252 -253 144 -595 256 -907 296
-150 20 -388 27 -519 16z m374 -645 c206 -15 472 -92 677 -196 123 -63 168
-93 168 -112 0 -7 -589 -601 -1309 -1321 -934 -934 -1313 -1307 -1325 -1303
-22 9 -61 74 -127 212 -197 415 -237 896 -109 1340 221 771 919 1336 1710
1385 122 7 151 7 315 -5z m1445 -902 c41 -52 150 -288 190 -408 265 -818 -46
-1713 -760 -2189 -554 -369 -1276 -422 -1875 -137 -138 66 -203 105 -212 127
-4 12 369 391 1303 1325 720 720 1314 1309 1321 1309 6 0 21 -12 33 -27z"/>
</g>
</svg>
